<svg xmlns="http://www.w3.org/2000/svg" version="1.1" xmlns:xlink="http://www.w3.org/1999/xlink" xmlns:svgjs="http://svgjs.dev/svgjs" width="1500" height="1500" viewBox="0 0 1500 1500"><rect width="1500" height="1500" fill="#ffffff"></rect><g transform="matrix(0.6666666666666666,0,0,0.6666666666666666,249.39393939393938,688.0782522844637)"><svg viewBox="0 0 396 49" data-background-color="#ffffff" preserveAspectRatio="xMidYMid meet" height="185" width="1500" xmlns="http://www.w3.org/2000/svg" xmlns:xlink="http://www.w3.org/1999/xlink"><g id="tight-bounds" transform="matrix(1,0,0,1,0.2400000000000091,0.10134301130770496)"><svg viewBox="0 0 395.52 48.797313977384604" height="48.797313977384604" width="395.52"><g><svg viewBox="0 0 631.4621742967402 77.90669999999999" height="48.797313977384604" width="395.52"><g><svg viewBox="0 0 631.4621742967402 77.90669999999999" height="77.90669999999999" width="631.4621742967402"><g id="textblocktransform"><svg viewBox="0 0 631.4621742967402 77.90669999999999" height="77.90669999999999" width="631.4621742967402" id="textblock"><g><svg viewBox="0 0 631.4621742967402 77.90669999999999" height="77.90669999999999" width="631.4621742967402"><g><svg><g></g><g></g></svg></g><g><svg><g><svg></svg></g><g></g></svg></g><g id="text-0"><svg viewBox="0 0 631.4621742967402 77.90669999999999" height="77.90669999999999" width="631.4621742967402"><g transform="matrix(1,0,0,1,0,15.12834999999999)"><svg width="197.45000000000002" viewBox="4.25 -36.5 197.43 37" height="37" data-palette-color="#f67280"><path d="M28.3-35.5L32.8-35.5 32.8 0 28.3 0 28.3-16.15 8.75-16.15 8.75 0 4.25 0 4.25-35.5 8.75-35.5 8.75-20.15 28.3-20.15 28.3-35.5ZM38.3-7.55L38.3-7.55Q38.3-10.05 39.72-11.88 41.15-13.7 43.65-14.7 46.15-15.7 49.45-15.7L49.45-15.7Q51.2-15.7 53.15-15.43 55.1-15.15 56.6-14.6L56.6-14.6 56.6-16.5Q56.6-19.5 54.8-21.23 53-22.95 49.7-22.95L49.7-22.95Q47.55-22.95 45.57-22.18 43.6-21.4 41.4-19.95L41.4-19.95 39.8-23.05Q42.35-24.8 44.9-25.68 47.45-26.55 50.2-26.55L50.2-26.55Q55.2-26.55 58.1-23.78 61-21 61-16.05L61-16.05 61-5Q61-4.2 61.32-3.83 61.65-3.45 62.4-3.4L62.4-3.4 62.4 0Q61.75 0.1 61.27 0.15 60.8 0.2 60.5 0.2L60.5 0.2Q58.95 0.2 58.17-0.65 57.4-1.5 57.3-2.45L57.3-2.45 57.2-4.1Q55.5-1.9 52.75-0.7 50 0.5 47.3 0.5L47.3 0.5Q44.7 0.5 42.65-0.58 40.6-1.65 39.45-3.48 38.3-5.3 38.3-7.55ZM55.3-5.7L55.3-5.7Q55.9-6.4 56.25-7.13 56.6-7.85 56.6-8.35L56.6-8.35 56.6-11.6Q55.05-12.2 53.35-12.53 51.65-12.85 50-12.85L50-12.85Q46.65-12.85 44.57-11.53 42.5-10.2 42.5-7.9L42.5-7.9Q42.5-6.65 43.17-5.48 43.85-4.3 45.17-3.55 46.5-2.8 48.45-2.8L48.45-2.8Q50.5-2.8 52.35-3.63 54.2-4.45 55.3-5.7ZM72.45 0L68.05 0 68.05-26.1 72.45-26.1 72.45 0ZM72.45-31L68.05-31 68.05-36.5 72.45-36.5 72.45-31ZM93.34-26.25L93.34-22.25Q90.04-22.2 87.52-20.58 84.99-18.95 83.94-16.1L83.94-16.1 83.94 0 79.54 0 79.54-26.1 83.64-26.1 83.64-20.05Q84.99-22.75 87.22-24.43 89.44-26.1 91.89-26.3L91.89-26.3Q92.39-26.3 92.74-26.3 93.09-26.3 93.34-26.25L93.34-26.25ZM96.09-18L96.09-18Q96.09-21.25 97.22-24.38 98.34-27.5 100.52-30.08 102.69-32.65 105.84-34.18 108.99-35.7 112.99-35.7L112.99-35.7Q117.74-35.7 121.14-33.52 124.54-31.35 126.19-27.95L126.19-27.95 122.64-25.65Q121.59-27.9 119.97-29.23 118.34-30.55 116.47-31.1 114.59-31.65 112.79-31.65L112.79-31.65Q109.84-31.65 107.57-30.45 105.29-29.25 103.74-27.25 102.19-25.25 101.42-22.78 100.64-20.3 100.64-17.8L100.64-17.8Q100.64-15.05 101.57-12.5 102.49-9.95 104.14-8 105.79-6.05 108.04-4.9 110.29-3.75 112.94-3.75L112.94-3.75Q114.79-3.75 116.74-4.4 118.69-5.05 120.39-6.43 122.09-7.8 123.09-10L123.09-10 126.84-7.95Q125.74-5.3 123.44-3.45 121.14-1.6 118.32-0.65 115.49 0.3 112.74 0.3L112.74 0.3Q109.09 0.3 106.04-1.28 102.99-2.85 100.77-5.48 98.54-8.1 97.32-11.38 96.09-14.65 96.09-18ZM129.74-7.55L129.74-7.55Q129.74-10.05 131.16-11.88 132.59-13.7 135.09-14.7 137.59-15.7 140.89-15.7L140.89-15.7Q142.64-15.7 144.59-15.43 146.54-15.15 148.04-14.6L148.04-14.6 148.04-16.5Q148.04-19.5 146.24-21.23 144.44-22.95 141.14-22.95L141.14-22.95Q138.99-22.95 137.01-22.18 135.04-21.4 132.84-19.95L132.84-19.95 131.24-23.05Q133.79-24.8 136.34-25.68 138.89-26.55 141.64-26.55L141.64-26.55Q146.64-26.55 149.54-23.78 152.44-21 152.44-16.05L152.44-16.05 152.44-5Q152.44-4.2 152.76-3.83 153.09-3.45 153.84-3.4L153.84-3.4 153.84 0Q153.19 0.1 152.71 0.15 152.24 0.2 151.94 0.2L151.94 0.2Q150.39 0.2 149.61-0.65 148.84-1.5 148.74-2.45L148.74-2.45 148.64-4.1Q146.94-1.9 144.19-0.7 141.44 0.5 138.74 0.5L138.74 0.5Q136.14 0.5 134.09-0.58 132.04-1.65 130.89-3.48 129.74-5.3 129.74-7.55ZM146.74-5.7L146.74-5.7Q147.34-6.4 147.69-7.13 148.04-7.85 148.04-8.35L148.04-8.35 148.04-11.6Q146.49-12.2 144.79-12.53 143.09-12.85 141.44-12.85L141.44-12.85Q138.09-12.85 136.01-11.53 133.94-10.2 133.94-7.9L133.94-7.9Q133.94-6.65 134.61-5.48 135.29-4.3 136.61-3.55 137.94-2.8 139.89-2.8L139.89-2.8Q141.94-2.8 143.79-3.63 145.64-4.45 146.74-5.7ZM173.28-26.25L173.28-22.25Q169.99-22.2 167.46-20.58 164.94-18.95 163.88-16.1L163.88-16.1 163.88 0 159.49 0 159.49-26.1 163.59-26.1 163.59-20.05Q164.94-22.75 167.16-24.43 169.38-26.1 171.84-26.3L171.84-26.3Q172.34-26.3 172.69-26.3 173.03-26.3 173.28-26.25L173.28-26.25ZM188.58 0.5L188.58 0.5Q185.63 0.5 183.21-0.58 180.78-1.65 179.01-3.53 177.23-5.4 176.26-7.85 175.28-10.3 175.28-13.05L175.28-13.05Q175.28-16.75 176.98-19.8 178.68-22.85 181.71-24.7 184.73-26.55 188.63-26.55L188.63-26.55Q192.58-26.55 195.51-24.68 198.43-22.8 200.06-19.78 201.68-16.75 201.68-13.25L201.68-13.25Q201.68-12.75 201.66-12.28 201.63-11.8 201.58-11.55L201.58-11.55 179.93-11.55Q180.13-9 181.36-7.03 182.58-5.05 184.53-3.93 186.48-2.8 188.73-2.8L188.73-2.8Q191.13-2.8 193.26-4 195.38-5.2 196.18-7.15L196.18-7.15 199.98-6.1Q199.13-4.2 197.46-2.7 195.78-1.2 193.51-0.35 191.23 0.5 188.58 0.5ZM179.78-14.6L179.78-14.6 197.58-14.6Q197.38-17.15 196.13-19.1 194.88-21.05 192.93-22.15 190.98-23.25 188.63-23.25L188.63-23.25Q186.33-23.25 184.38-22.15 182.43-21.05 181.21-19.1 179.98-17.15 179.78-14.6Z" opacity="1" transform="matrix(1,0,0,1,0,0)" fill="#f67280" class="undefined-yy-0"></path></svg></g><g><svg xmlns="http://www.w3.org/2000/svg" xmlns:xlink="http://www.w3.org/1999/xlink" version="1.1" x="215.84330000000003" y="0" viewBox="15.748997895717725 10.99952630442365 64.2510042144727 78.48747369557634" enable-background="new 0 0 100 100" xml:space="preserve" height="77.90669999999999" width="63.775574296740054" class="icon-cg-0" data-fill-palette-color="accent" id="cg-0"><path d="M78.039 48.878c-0.807-0.857-1.75-1.287-2.693-1.287-0.946 0-1.893 0.432-2.701 1.295 0.081-0.943 0.121-1.859 0.143-2.76 0.688-11.782 0.534-17.642-0.52-21.152-1.101-3.671-3.228-4.709-5.918-6.021-0.288-0.14-0.584-0.284-0.886-0.435-1.545-0.772-3.317-1.757-5.031-2.708-1.719-0.955-3.496-1.943-5.056-2.722-3.646-1.824-5.81-2.344-8.008-1.979-1.782 0.298-3.544 1.24-5.584 2.333-0.72 0.385-1.479 0.792-2.291 1.198-1.31 0.654-2.751 1.306-4.28 1.997-2.095 0.947-4.263 1.927-6.395 3.05-3.613 1.9-7.344 3.88-6.584 28.489-0.585-0.377-1.206-0.584-1.832-0.584-0.943-0.001-1.886 0.429-2.692 1.287-1.606 1.708-1.961 3.471-1.962 5.69-0.001 2.221 0.354 3.984 1.955 5.693 0.807 0.863 1.754 1.295 2.7 1.295 0.944 0 1.886-0.43 2.694-1.287 3.83 19.906 14.303 29.217 24.777 29.217 10.474 0 20.948-9.311 24.777-29.217 0.808 0.857 1.751 1.287 2.693 1.287 0.947 0 1.894-0.432 2.701-1.295 1.601-1.709 1.955-3.475 1.954-5.693S79.644 50.586 78.039 48.878zM76.848 59.139c-0.332 0.354-0.861 0.775-1.503 0.775-0.639 0-1.166-0.418-1.496-0.771l-2.202-2.342-0.606 3.158c-3.956 20.559-14.561 27.885-23.166 27.885-8.604 0-19.209-7.326-23.165-27.885l-0.608-3.158L21.9 59.143c-0.33 0.354-0.857 0.771-1.497 0.771-0.64 0-1.169-0.422-1.501-0.775-1.118-1.193-1.513-2.389-1.512-4.568 0.001-2.182 0.398-3.376 1.516-4.567 0.331-0.351 0.858-0.77 1.497-0.769 0.642 0 1.171 0.421 1.502 0.776l0.878 0.937 0.981 3.731c0.046 0.182 0.21 0.307 0.396 0.307 1.664 0 2.22-2.607 3.064-6.551 0.581-2.718 1.239-5.796 2.409-8.69 1.314-3.247 4.327-8.697 9.755-8.697 2.116 0 4.432 0.823 6.885 2.447 0.924 0.612 1.903 1.362 2.653 1.945 0.779 0.607 1.32 1.045 1.742 1.559 0.393 0.476 0.69 1.035 0.864 1.613 0.167 0.555 0.223 1.146 0.163 1.708-0.058 0.54-0.223 1.068-0.477 1.531-0.22 0.398-0.537 0.806-0.851 1.09-0.24 0.218-0.434 0.318-0.757 0.448-2.784 1.134-4.924 0.116-6.464-2.963-0.079-0.161-0.251-0.251-0.429-0.224-0.177 0.027-0.315 0.166-0.344 0.342-0.045 0.289-0.067 0.602-0.062 0.903 0.006 0.308 0.04 0.619 0.102 0.925 0.064 0.311 0.155 0.618 0.271 0.911 0.12 0.301 0.268 0.593 0.439 0.869 0.175 0.281 0.376 0.548 0.597 0.794 0.226 0.25 0.477 0.482 0.746 0.692 0.275 0.212 0.569 0.401 0.875 0.56 0.31 0.163 0.641 0.299 0.982 0.407 0.341 0.108 0.697 0.185 1.059 0.231 0.361 0.045 0.732 0.059 1.105 0.042 0.375-0.019 0.752-0.073 1.119-0.158 0.37-0.086 0.738-0.207 1.094-0.359 0.359-0.154 0.706-0.341 1.032-0.555 0.332-0.218 0.648-0.468 0.937-0.743 0.295-0.281 0.566-0.587 0.807-0.913 0.244-0.331 0.461-0.687 0.645-1.06 0.187-0.377 0.34-0.772 0.458-1.178 0.118-0.411 0.202-0.836 0.246-1.261 0.047-0.431 0.055-0.872 0.022-1.307-0.03-0.439-0.102-0.88-0.211-1.312-0.108-0.436-0.259-0.867-0.444-1.278-0.188-0.416-0.414-0.819-0.673-1.198-0.263-0.383-0.562-0.747-0.887-1.079-0.195-0.199-0.401-0.388-0.617-0.567 2.488-1.121 4.667-1.688 6.484-1.688 3.86 0 6.249 2.441 7.741 7.913 0.618 2.271 1.024 4.812 1.382 7.051 0.721 4.528 1.243 7.798 3.088 7.798 0.186 0 0.35-0.125 0.396-0.307l0.635-2.424 2.101-2.244c0.33-0.354 0.859-0.776 1.501-0.776 0.64 0 1.168 0.418 1.497 0.77 1.118 1.19 1.515 2.385 1.516 4.566C78.359 56.75 77.964 57.945 76.848 59.139z" fill="#c06c84" data-fill-palette-color="accent"></path></svg></g><g transform="matrix(1,0,0,1,298.0121742967401,14.62834999999999)"><svg width="333.45000000000005" viewBox="4.25 -37 333.42 48.15" height="48.150000000000006" data-palette-color="#f67280"><path d="M39.45 0L34.95 0 34.95-27.1 23.25-6.25 20.5-6.25 8.75-27.1 8.75 0 4.25 0 4.25-35.5 9-35.5 21.85-12.45 34.75-35.5 39.45-35.5 39.45 0ZM44.95-7.55L44.95-7.55Q44.95-10.05 46.37-11.88 47.8-13.7 50.3-14.7 52.8-15.7 56.1-15.7L56.1-15.7Q57.85-15.7 59.8-15.43 61.75-15.15 63.25-14.6L63.25-14.6 63.25-16.5Q63.25-19.5 61.45-21.23 59.65-22.95 56.35-22.95L56.35-22.95Q54.2-22.95 52.22-22.18 50.25-21.4 48.05-19.95L48.05-19.95 46.45-23.05Q49-24.8 51.55-25.68 54.1-26.55 56.85-26.55L56.85-26.55Q61.85-26.55 64.75-23.78 67.65-21 67.65-16.05L67.65-16.05 67.65-5Q67.65-4.2 67.97-3.83 68.3-3.45 69.05-3.4L69.05-3.4 69.05 0Q68.4 0.1 67.92 0.15 67.45 0.2 67.15 0.2L67.15 0.2Q65.6 0.2 64.82-0.65 64.05-1.5 63.95-2.45L63.95-2.45 63.85-4.1Q62.15-1.9 59.4-0.7 56.65 0.5 53.95 0.5L53.95 0.5Q51.35 0.5 49.3-0.58 47.25-1.65 46.1-3.48 44.95-5.3 44.95-7.55ZM61.95-5.7L61.95-5.7Q62.55-6.4 62.9-7.13 63.25-7.85 63.25-8.35L63.25-8.35 63.25-11.6Q61.7-12.2 60-12.53 58.3-12.85 56.65-12.85L56.65-12.85Q53.3-12.85 51.22-11.53 49.15-10.2 49.15-7.9L49.15-7.9Q49.15-6.65 49.82-5.48 50.5-4.3 51.82-3.55 53.15-2.8 55.1-2.8L55.1-2.8Q57.15-2.8 59-3.63 60.85-4.45 61.95-5.7ZM97.35-15.6L97.35 0 92.95 0 92.95-14.6Q92.95-18.75 91.67-20.68 90.4-22.6 87.8-22.6L87.8-22.6Q86-22.6 84.22-21.7 82.45-20.8 81.07-19.28 79.7-17.75 79.1-15.75L79.1-15.75 79.1 0 74.7 0 74.7-26.1 78.7-26.1 78.7-20.5Q79.75-22.35 81.4-23.7 83.05-25.05 85.15-25.8 87.25-26.55 89.55-26.55L89.55-26.55Q91.8-26.55 93.32-25.73 94.85-24.9 95.72-23.43 96.6-21.95 96.97-19.95 97.35-17.95 97.35-15.6L97.35-15.6ZM103.94-10.45L103.94-10.45 103.94-26.1 108.34-26.1 108.34-11.3Q108.34-7.3 109.74-5.3 111.14-3.3 113.89-3.3L113.89-3.3Q115.69-3.3 117.37-4.08 119.04-4.85 120.39-6.3 121.74-7.75 122.49-9.75L122.49-9.75 122.49-26.1 126.89-26.1 126.89-5Q126.89-4.2 127.22-3.83 127.54-3.45 128.29-3.4L128.29-3.4 128.29 0Q127.54 0.1 127.12 0.13 126.69 0.15 126.29 0.15L126.29 0.15Q125.04 0.15 124.14-0.63 123.24-1.4 123.19-2.55L123.19-2.55 123.09-5.6Q121.39-2.7 118.52-1.1 115.64 0.5 112.24 0.5L112.24 0.5Q108.14 0.5 106.04-2.27 103.94-5.05 103.94-10.45ZM140.04 0L135.64 0 135.64-22.65 132.09-22.65 132.09-26.1 135.64-26.1 135.64-26.65Q135.64-29.85 136.62-32.18 137.59-34.5 139.39-35.75 141.19-37 143.64-37L143.64-37Q145.19-37 146.69-36.58 148.19-36.15 149.39-35.4L149.39-35.4 148.29-32.15Q147.59-32.65 146.57-32.95 145.54-33.25 144.54-33.25L144.54-33.25Q142.39-33.25 141.22-31.58 140.04-29.9 140.04-26.8L140.04-26.8 140.04-26.1 146.99-26.1 146.99-22.65 140.04-22.65 140.04 0ZM149.34-7.55L149.34-7.55Q149.34-10.05 150.76-11.88 152.19-13.7 154.69-14.7 157.19-15.7 160.49-15.7L160.49-15.7Q162.24-15.7 164.19-15.43 166.14-15.15 167.64-14.6L167.64-14.6 167.64-16.5Q167.64-19.5 165.84-21.23 164.04-22.95 160.74-22.95L160.74-22.95Q158.59-22.95 156.61-22.18 154.64-21.4 152.44-19.95L152.44-19.95 150.84-23.05Q153.39-24.8 155.94-25.68 158.49-26.55 161.24-26.55L161.24-26.55Q166.24-26.55 169.14-23.78 172.04-21 172.04-16.05L172.04-16.05 172.04-5Q172.04-4.2 172.36-3.83 172.69-3.45 173.44-3.4L173.44-3.4 173.44 0Q172.79 0.1 172.31 0.15 171.84 0.2 171.54 0.2L171.54 0.2Q169.99 0.2 169.21-0.65 168.44-1.5 168.34-2.45L168.34-2.45 168.24-4.1Q166.54-1.9 163.79-0.7 161.04 0.5 158.34 0.5L158.34 0.5Q155.74 0.5 153.69-0.58 151.64-1.65 150.49-3.48 149.34-5.3 149.34-7.55ZM166.34-5.7L166.34-5.7Q166.94-6.4 167.29-7.13 167.64-7.85 167.64-8.35L167.64-8.35 167.64-11.6Q166.09-12.2 164.39-12.53 162.69-12.85 161.04-12.85L161.04-12.85Q157.69-12.85 155.61-11.53 153.54-10.2 153.54-7.9L153.54-7.9Q153.54-6.65 154.21-5.48 154.89-4.3 156.21-3.55 157.54-2.8 159.49-2.8L159.49-2.8Q161.54-2.8 163.39-3.63 165.24-4.45 166.34-5.7ZM190.64 0.5L190.64 0.5Q187.69 0.5 185.26-0.58 182.84-1.65 181.06-3.55 179.29-5.45 178.31-7.9 177.34-10.35 177.34-13.1L177.34-13.1Q177.34-16.8 178.99-19.85 180.64-22.9 183.64-24.73 186.64-26.55 190.59-26.55L190.59-26.55Q194.44-26.55 197.31-24.83 200.19-23.1 201.59-20.2L201.59-20.2 197.29-18.85Q196.29-20.7 194.49-21.73 192.69-22.75 190.49-22.75L190.49-22.75Q188.09-22.75 186.11-21.5 184.14-20.25 182.99-18.07 181.84-15.9 181.84-13.1L181.84-13.1Q181.84-10.35 183.01-8.13 184.19-5.9 186.16-4.6 188.14-3.3 190.54-3.3L190.54-3.3Q192.09-3.3 193.51-3.85 194.94-4.4 196.01-5.33 197.09-6.25 197.49-7.35L197.49-7.35 201.79-6.05Q200.99-4.15 199.36-2.68 197.74-1.2 195.51-0.35 193.29 0.5 190.64 0.5ZM219.23-4.8L220.28-1.3Q219.73-1.05 218.78-0.65 217.83-0.25 216.58 0.05 215.33 0.35 213.93 0.35L213.93 0.35Q212.33 0.35 210.98-0.23 209.63-0.8 208.83-2.02 208.03-3.25 208.03-5.1L208.03-5.1 208.03-22.65 204.48-22.65 204.48-26.1 208.03-26.1 208.03-34.8 212.43-34.8 212.43-26.1 218.28-26.1 218.28-22.65 212.43-22.65 212.43-6.45Q212.53-5.05 213.38-4.38 214.23-3.7 215.38-3.7L215.38-3.7Q216.68-3.7 217.78-4.15 218.88-4.6 219.23-4.8L219.23-4.8ZM224.13-10.45L224.13-10.45 224.13-26.1 228.53-26.1 228.53-11.3Q228.53-7.3 229.93-5.3 231.33-3.3 234.08-3.3L234.08-3.3Q235.88-3.3 237.56-4.08 239.23-4.85 240.58-6.3 241.93-7.75 242.68-9.75L242.68-9.75 242.68-26.1 247.08-26.1 247.08-5Q247.08-4.2 247.41-3.83 247.73-3.45 248.48-3.4L248.48-3.4 248.48 0Q247.73 0.1 247.31 0.13 246.88 0.15 246.48 0.15L246.48 0.15Q245.23 0.15 244.33-0.63 243.43-1.4 243.38-2.55L243.38-2.55 243.28-5.6Q241.58-2.7 238.71-1.1 235.83 0.5 232.43 0.5L232.43 0.5Q228.33 0.5 226.23-2.27 224.13-5.05 224.13-10.45ZM268.23-26.25L268.23-22.25Q264.93-22.2 262.4-20.58 259.88-18.95 258.83-16.1L258.83-16.1 258.83 0 254.43 0 254.43-26.1 258.53-26.1 258.53-20.05Q259.88-22.75 262.1-24.43 264.33-26.1 266.78-26.3L266.78-26.3Q267.28-26.3 267.63-26.3 267.98-26.3 268.23-26.25L268.23-26.25ZM276.98 0L272.58 0 272.58-26.1 276.98-26.1 276.98 0ZM276.98-31L272.58-31 272.58-36.5 276.98-36.5 276.98-31ZM306.72-15.6L306.72 0 302.32 0 302.32-14.6Q302.32-18.75 301.05-20.68 299.77-22.6 297.17-22.6L297.17-22.6Q295.37-22.6 293.6-21.7 291.82-20.8 290.45-19.28 289.07-17.75 288.47-15.75L288.47-15.75 288.47 0 284.07 0 284.07-26.1 288.07-26.1 288.07-20.5Q289.12-22.35 290.77-23.7 292.42-25.05 294.52-25.8 296.62-26.55 298.92-26.55L298.92-26.55Q301.17-26.55 302.7-25.73 304.22-24.9 305.1-23.43 305.97-21.95 306.35-19.95 306.72-17.95 306.72-15.6L306.72-15.6ZM323.97 0.3L323.97 0.3Q321.32 0.3 319.1-0.78 316.87-1.85 315.27-3.73 313.67-5.6 312.8-8 311.92-10.4 311.92-13L311.92-13Q311.92-15.75 312.8-18.2 313.67-20.65 315.3-22.53 316.92-24.4 319.12-25.48 321.32-26.55 324.02-26.55L324.02-26.55Q327.27-26.55 329.7-24.95 332.12-23.35 333.77-20.9L333.77-20.9 333.77-26.1 337.67-26.1 337.67-0.3Q337.67 3.4 335.9 5.95 334.12 8.5 331.1 9.83 328.07 11.15 324.37 11.15L324.37 11.15Q319.97 11.15 317.17 9.6 314.37 8.05 312.52 5.4L312.52 5.4 315.07 3.15Q316.62 5.45 319.1 6.6 321.57 7.75 324.37 7.75L324.37 7.75Q326.77 7.75 328.8 6.88 330.82 6 332.05 4.2 333.27 2.4 333.27-0.3L333.27-0.3 333.27-4.9Q331.82-2.5 329.3-1.1 326.77 0.3 323.97 0.3ZM325.32-3.3L325.32-3.3Q326.72-3.3 328.02-3.8 329.32-4.3 330.42-5.13 331.52-5.95 332.27-7 333.02-8.05 333.27-9.15L333.27-9.15 333.27-16.65Q332.57-18.45 331.27-19.83 329.97-21.2 328.32-21.98 326.67-22.75 324.92-22.75L324.92-22.75Q322.92-22.75 321.35-21.9 319.77-21.05 318.67-19.63 317.57-18.2 316.97-16.45 316.37-14.7 316.37-12.9L316.37-12.9Q316.37-10.95 317.07-9.22 317.77-7.5 318.97-6.15 320.17-4.8 321.82-4.05 323.47-3.3 325.32-3.3Z" opacity="1" transform="matrix(1,0,0,1,0,0)" fill="#f67280" class="undefined-yy-1"></path></svg></g></svg></g></svg></g></svg></g></svg></g></svg></g><defs></defs></svg><rect width="395.52" height="48.797313977384604" fill="none" stroke="none" visibility="hidden"></rect></g></svg></g></svg>